{"title":"Mission Impossible 5-Rogue Nation 2015 TS x264 AC3-Garmin","uid":12213759,"size":1682720493,"categoryP":"video","categoryS":"movies","magnet":"?xt=urn:btih:d74a723103214fbee334020631f2a60da14683a4&amp;dn=Mission+Impossible+5-Rogue+Nation+2015+TS+x264+AC3-Garmin&amp;tr=udp%3A%2F%2Ftracker.openbittorrent.com%3A80&amp;tr=udp%3A%2F%2Fopen.demonii.com%3A1337&amp;tr=udp%3A%2F%2Ftracker.coppersurfer.tk%3A6969&amp;tr=udp%3A%2F%2Fexodus.desync.com%3A6969","seeders":169,"leechers":42,"uploader":"SS132203","files":4,"time":1439188802,"description":"Mission Impossible 5-Rogue Nation 2015 TS x264 AC3-Garmin\n &lt;a href=&quot;\nhttp://imgsparrow.co/image/89k&quot; rel=&quot;nofollow&quot; target=&quot;_NEW&quot;&gt;\nhttp://imgsparrow.co/image/89k&lt;/a&gt;\n &lt;a href=&quot;\nhttp://imgsparrow.co/image/9b&quot; rel=&quot;nofollow&quot; target=&quot;_NEW&quot;&gt;\nhttp://imgsparrow.co/image/9b&lt;/a&gt;\n\nInfo : - \n\nThank Garmin Not ME!\n\nPlease Support The Filmmakers\nDon't Just Download Go Watch In Theater Also\n\nComplete name                            : Mission.Impossible.5-Rogue.Nation.2015.TS.x264.AC3\nFormat                                   : Matroska\nFormat version                           : Version 4 / Version 2\nFile size                                : 1.52 GiB\nDuration                                 : 2h 4mn\nOverall bit rate                         : 1 745 Kbps\n\nVideo\nID                                       : 1\nFormat                                   : AVC\nFormat/Info                              : Advanced Video Codec\nFormat profile                           : High@L3\nFormat settings, CABAC                   : Yes\nFormat settings, ReFrames                : 5 frames\nCodec ID                                 : V_MPEG4/ISO/AVC\nDuration                                 : 2h 4mn\nBit rate                                 : 1 582 Kbps\nWidth                                    : 720 pixels\nHeight                                   : 300 pixels\nDisplay aspect ratio                     : 2.40:1\nFrame rate mode                          : Constant\nFrame rate                               : 25.000 fps\nColor space                              : YUV\nChroma subsampling                       : 4:2:0\nBit depth                                : 8 bits\nScan type                                : Progressive\nBits/(Pixel*Frame)                       : 0.293\nStream size                              : 1.38 GiB (91%)\nWriting library                          : x264 core 148 r2579 73ae2d1\nEncoding settings                        : cabac=1 / ref=5 / deblock=1:-1:-1 / analyse=0x3:0x133 / me=hex / subme=9 / psy=1 / psy_rd=1.00:0.80 / mixed_ref=1 / me_range=16 / chroma_me=1 / trellis=1 / 8x8dct=1 / cqm=0 / deadzone=21,11 /\nfast_pskip=1 / chroma_qp_offset=-4 / threads=9 / lookahead_threads=1 / sliced_threads=0 / nr=0 / decimate=1 / interlaced=0 / bluray_compat=0 / constrained_intra=0 / bframes=5 / b_pyramid=2 / b_adapt=2 / b_bias=0 / direct=1 / weightb=1\n / open_gop=0 / weightp=2 / keyint=250 / keyint_min=25 / scenecut=40 / intra_refresh=0 / rc_lookahead=40 / rc=crf / mbtree=1 / crf=18.0 / qcomp=0.60 / qpmin=0 / qpmax=69 / qpstep=4 / ip_ratio=1.40 / aq=1:1.50\nLanguage                                 : English\nDefault                                  : Yes\nForced                                   : Yes\n\nAudio\nID                                       : 2\nFormat                                   : AC-3\nFormat/Info                              : Audio Coding 3\nMode extension                           : CM (complete main)\nFormat settings, Endianness              : Big\nCodec ID                                 : A_AC3\nDuration                                 : 2h 4mn\nBit rate mode                            : Constant\nBit rate                                 : 128 Kbps\nChannel(s)                               : 2 channels\nChannel positions                        : Front: L R\nSampling rate                            : 48.0 KHz\nCompression mode                         : Lossy\nStream size                              : 114 MiB (7%)\nLanguage                                 : English\nDefault                                  : Yes\nForced                                   : Yes\n\nSource Video                             : Mission.Impossible.5-Rogue.Nation.2015.FULL.720P.HDTS.x264.AC3.HQ.Hive-CM8\nSource Audio                             : Mission.Impossible.5-Rogue.Nation.2015.FULL.720P.HDTS.x264.AC3.HQ.Hive-CM8\nGenre                                    : Action, Adventure, Thriller\nRelease Date                             : 07/31/2015\nSample Included                          : Yes\nImdb                                     : http://www.imdb.com/title/tt2381249/\n\nWe werent gonna make another but we had some folks ask us to please do it. So here it is we took Hive/CM8 720p. And\nreworked the colors and the brightness the ghosting it had and sharpened it. For the ones that asked here it is\nfor those that will download and didnt ask hope you all enjoy. Look at sample as screens always look better.\n\nScreens : - \n &lt;a href=&quot;\nhttp://imgsparrow.co/image/8Uf&quot; rel=&quot;nofollow&quot; target=&quot;_NEW&quot;&gt;\nhttp://imgsparrow.co/image/8Uf&lt;/a&gt; &lt;a href=&quot;\nhttp://imgsparrow.co/image/8UI&quot; rel=&quot;nofollow&quot; target=&quot;_NEW&quot;&gt;\nhttp://imgsparrow.co/image/8UI&lt;/a&gt; &lt;a href=&quot;\nhttp://imgsparrow.co/image/8UP&quot; rel=&quot;nofollow&quot; target=&quot;_NEW&quot;&gt;\nhttp://imgsparrow.co/image/8UP&lt;/a&gt; &lt;a href=&quot;\nhttp://imgsparrow.co/image/8UW&quot; rel=&quot;nofollow&quot; target=&quot;_NEW&quot;&gt;\nhttp://imgsparrow.co/image/8UW&lt;/a&gt; &lt;a href=&quot;\nhttp://imgsparrow.co/image/8UX&quot; rel=&quot;nofollow&quot; target=&quot;_NEW&quot;&gt;\nhttp://imgsparrow.co/image/8UX&lt;/a&gt; &lt;a href=&quot;\nhttp://imgsparrow.co/image/8UY&quot; rel=&quot;nofollow&quot; target=&quot;_NEW&quot;&gt;\nhttp://imgsparrow.co/image/8UY&lt;/a&gt; &lt;a href=&quot;\nhttp://imgsparrow.co/image/8Uc&quot; rel=&quot;nofollow&quot; target=&quot;_NEW&quot;&gt;\nhttp://imgsparrow.co/image/8Uc&lt;/a&gt;\n &lt;a href=&quot;\nhttp://imgsparrow.co/image/N2&quot; rel=&quot;nofollow&quot; target=&quot;_NEW&quot;&gt;\nhttp://imgsparrow.co/image/N2&lt;/a&gt;","torrent":{"xt":"urn:btih:d74a723103214fbee334020631f2a60da14683a4","amp;dn":"Mission+Impossible+5-Rogue+Nation+2015+TS+x264+AC3-Garmin","amp;tr":["udp%3A%2F%2Ftracker.openbittorrent.com%3A80","udp%3A%2F%2Fopen.demonii.com%3A1337","udp%3A%2F%2Ftracker.coppersurfer.tk%3A6969","udp%3A%2F%2Fexodus.desync.com%3A6969"],"infoHash":"d74a723103214fbee334020631f2a60da14683a4","infoHashBuffer":{"type":"Buffer","data":[215,74,114,49,3,33,79,190,227,52,2,6,49,242,166,13,161,70,131,164]},"announce":[],"urlList":[]}}